<?xml version="1.0" encoding="utf-8"?>
<!-- Generator: Adobe Illustrator 25.4.1, SVG Export Plug-In . SVG Version: 6.00 Build 0)  -->
<svg version="1.1" id="Layer_1" xmlns="http://www.w3.org/2000/svg" xmlns:xlink="http://www.w3.org/1999/xlink" x="0px" y="0px"
	 viewBox="0 0 40 40" style="enable-background:new 0 0 40 40;" xml:space="preserve">
<style type="text/css">
	.st0{fill:#FFFFFF;}
</style>
<g>
	<path class="st0" d="M30.65,16.24c0.35,0.81,0.2,1.57-0.19,2.32c-0.21,0.41-0.44,0.83-0.52,1.27c-0.34,1.92-1.76,2.65-3.39,3.21
		c-0.6,0.2-0.84,0.07-0.92-0.56c-0.19-1.58-0.18-1.63,1.33-2.21c0.85-0.33,0.9-0.49,0.56-2.14c-0.33,0.3-0.66,0.5-0.86,0.78
		c-1.4,2.08-3.33,3.39-5.7,4.15c-0.91,0.29-1.74,0.79-2.65,1.09c-1.35,0.44-2.31,1.12-2.74,2.6c-0.19,0.64-0.96,1.22-1.6,1.59
		c-1.81,1.06-2.7,2.64-2.78,4.66c-0.04,0.85,0.19,1.72,0.41,2.55c0.21,0.77,0.02,1.02-0.77,1.01c-1.41-0.01-2.35-1.12-2.09-2.61
		c0.13-0.73,0.33-1.45,0.48-2.17c0.13-0.61,0.4-1.22-0.34-1.7c-0.11-0.07,0-0.74,0.19-0.94c0.71-0.71,0.72-1.36,0.24-2.23
		c-0.66-1.22-1.48-2.45-1.04-4.07c-0.62,0.7-1.25,1.39-1.87,2.09c-1.31,1.49-3.05,1.33-3.97-0.36c-0.11-0.21-0.27-0.4-0.41-0.59
		c0-0.14,0-0.28,0-0.43c0.21-0.36,0.39-0.72,0.62-1.06c0.3-0.44,0.55-1.08,0.98-1.25c0.67-0.26,1.46-0.23,2.2-0.23
		c0.23,0,0.46,0.31,0.69,0.48c-0.2,0.25-0.35,0.62-0.6,0.71c-0.38,0.14-0.92-0.04-1.24,0.16c-0.45,0.29-0.84,0.75-1.08,1.23
		c-0.1,0.2,0.28,0.91,0.42,0.9c0.48-0.02,1.09-0.11,1.4-0.43c1.12-1.13,2.28-2.26,3.13-3.59c0.63-0.97,1.42-1.25,2.39-1.42
		c0.75-0.13,1.22-0.51,1.59-1.21c1.12-2.09,2.25-4.17,3.5-6.17c0.94-1.49,2.05-2.87,4.11-2.86c0.29,0,0.62-0.28,0.86-0.51
		c1.53-1.47,3.05-2.95,4.54-4.46c0.46-0.47,0.87-0.57,1.5-0.33c1.41,0.54,2.85,1.03,4.3,1.48c0.44,0.14,0.96,0.03,1.42,0.13
		C33.53,5.32,34.4,5.39,35,5.82c0.72,0.52,1.22,0.69,1.96,0.13c0.21-0.16,0.66-0.02,1-0.02c0,0.07,0,0.14,0,0.21
		c-1.26,1.85-2.07,2.1-4.04,1.21c-0.6-0.27-0.98-0.17-1.03,0.52c-0.07,0.93-0.41,1.61-1.18,2.22c-0.35,0.28-0.21,1.15-0.31,1.76
		c-0.09,0.52,0.32,1.28-0.66,1.38c-0.84,0.09-1.76,0.52-2.19-0.72c-0.14-0.41-0.42-0.78-0.64-1.17c0.19,1.06,0.37,2.09,0.59,3.29
		c0.95-0.09,1.84,0.4,2.19,1.64L30.65,16.24z"/>
	<path class="st0" d="M17.37,35.31c-2.25,0.66-2.72-0.29-2.62-2.54c0.03-0.66,0.29-1.31,0.41-1.97c0.05-0.26,0.08-0.68-0.06-0.79
		c-0.94-0.75-0.24-1.14,0.27-1.65c0.41-0.41,0.95-0.86,1.06-1.37c0.4-1.82,2.05-1.84,3.28-2.44c0.12-0.06,0.54,0.15,0.56,0.28
		c0.07,0.45,0.19,1.01-0.01,1.36c-0.4,0.7-0.98,1.29-1.52,1.9c-1.66,1.88-2.31,3.98-1.45,6.43C17.38,34.77,17.35,35.06,17.37,35.31z
		"/>
	<path class="st0" d="M30.67,16.27c-0.36-0.76-0.73-1.53-1.16-2.43c0.6-0.3,1.44-0.38,2.2,0.16c0.95,0.67,2.01,1.31,2.66,2.22
		c0.59,0.83,0.72,1.99,1.01,3.02c0.03,0.09-0.22,0.35-0.38,0.39c-1.05,0.28-1.85-0.26-2.07-1.36c-0.05-0.24-0.1-0.47-0.36-0.5
		c-0.64-0.51-1.28-1.02-1.92-1.53C30.65,16.24,30.67,16.27,30.67,16.27z"/>
</g>
</svg>
