<?xml version="1.0" encoding="utf-8"?>
<!-- Generator: Adobe Illustrator 25.4.1, SVG Export Plug-In . SVG Version: 6.00 Build 0)  -->
<svg version="1.1" id="Layer_1" xmlns="http://www.w3.org/2000/svg" xmlns:xlink="http://www.w3.org/1999/xlink" x="0px" y="0px"
	 viewBox="0 0 40 40" style="enable-background:new 0 0 40 40;" xml:space="preserve">
<style type="text/css">
	.st0{fill:#FFFFFF;}
	.st1{fill:#FFFFFF;stroke:#FFFFFF;stroke-miterlimit:10;}
</style>
<g>
	<path class="st0" d="M23.23,7.05c5.01,8.69,9.92,17.2,14.93,25.89c-10.04,0-19.82,0-29.86,0C13.3,24.27,18.21,15.76,23.23,7.05z
		 M36.1,31.77c-4.32-7.49-8.54-14.82-12.88-22.33c-4.33,7.51-8.55,14.84-12.88,22.33C19.02,31.77,27.43,31.77,36.1,31.77z"/>
	<path class="st1" d="M9.36,20.52c2.39,4.14,4.73,8.2,7.12,12.34c-4.79,0-9.45,0-14.23,0C4.62,28.73,6.96,24.67,9.36,20.52z
		 M15.49,32.3c-2.06-3.57-4.07-7.06-6.14-10.64c-2.06,3.58-4.08,7.07-6.14,10.64C7.35,32.3,11.36,32.3,15.49,32.3z"/>
	<path class="st1" d="M1.84,16.52c4.78,0,9.45,0,14.23,0c-2.39,4.14-4.73,8.2-7.12,12.34C6.56,24.71,4.22,20.65,1.84,16.52z
		 M2.82,17.08c2.06,3.57,4.07,7.06,6.14,10.64c2.06-3.58,4.08-7.07,6.14-10.64C10.96,17.08,6.95,17.08,2.82,17.08z"/>
</g>
</svg>
