<?xml version="1.0" encoding="utf-8"?>
<!-- Generator: Adobe Illustrator 25.4.1, SVG Export Plug-In . SVG Version: 6.00 Build 0)  -->
<svg version="1.1" id="Layer_1" xmlns="http://www.w3.org/2000/svg" xmlns:xlink="http://www.w3.org/1999/xlink" x="0px" y="0px"
	 viewBox="0 0 40 40" style="enable-background:new 0 0 40 40;" xml:space="preserve">
<style type="text/css">
	.st0{fill:#FFFFFF;}
</style>
<g>
	<path id="Rectangle_51" class="st0" d="M15.98,8.95h8.03c0.51,0,0.93,0.42,0.93,0.93v21.17l0,0h-9.89l0,0V9.88
		C15.06,9.37,15.47,8.95,15.98,8.95z"/>
	<path id="Rectangle_52" class="st0" d="M5.63,16.13h8.03c0.51,0,0.93,0.37,0.93,0.83v14.09l0,0H4.71l0,0V16.96
		C4.71,16.5,5.12,16.13,5.63,16.13z"/>
	<path id="Rectangle_53" class="st0" d="M26.33,16.13h8.03c0.51,0,0.93,0.37,0.93,0.83v14.09l0,0h-9.89l0,0V16.96
		C25.41,16.5,25.82,16.13,26.33,16.13z"/>
</g>
</svg>
