<svg version="1.2" baseProfile="tiny-ps" xmlns="http://www.w3.org/2000/svg" viewBox="0 0 76 76" width="76" height="76">
	<title>S3_services_v3</title>
	<style>
		tspan { white-space:pre }
		.shp0 { fill: #ec7123 } 
	</style>
	<g id="body">
		<g id="white">
			<path id="Shape 3" class="shp0" d="M67.09 16.63C62.17 16.63 58.19 20.61 58.19 25.53L58.19 28.5L47.45 28.5C51.03 22.38 52.84 17.8 52.84 14.84C52.84 6.66 46.18 0 38 0C29.82 0 23.16 6.66 23.16 14.84C23.16 17.8 24.97 22.38 28.55 28.5C27.34 28.5 18.85 28.5 17.81 28.5L17.81 25.53C17.81 20.62 13.82 16.63 8.91 16.63C3.99 16.63 0 20.61 0 25.53L0 33.84C0 34.66 0.66 35.33 1.48 35.33C2.3 35.33 2.97 34.66 2.97 33.84L2.97 25.53C2.97 22.25 5.63 19.59 8.91 19.59C12.18 19.59 14.84 22.26 14.84 25.53L14.84 60.46C13.27 59.05 11.18 58.19 8.91 58.19C6.63 58.19 4.55 59.05 2.97 60.46L2.97 45.72C2.97 44.9 2.3 44.23 1.48 44.23C0.66 44.23 0 44.9 0 45.72L0 67.09C0 72.19 4.4 76 9.33 76L67.09 76C72 76 76 72 76 67.09L76 25.53C76 20.62 72 16.63 67.09 16.63ZM61.16 25.53C61.16 22.25 63.81 19.59 67.09 19.59C70.37 19.59 73.03 22.26 73.03 25.53L73.03 60.42C72.01 59.51 70.78 58.84 69.44 58.49C66.47 57.72 63.41 58.44 61.16 60.45C61.16 59.18 61.16 27.31 61.16 25.53ZM58.19 46.31L39.19 46.31C34.21 41.58 24.71 32.53 23.6 31.47L30.35 31.47C33.59 36.65 36.78 40.92 36.81 40.97C37.09 41.34 37.53 41.56 38 41.56C38.47 41.56 38.91 41.34 39.19 40.97C39.22 40.92 42.41 36.65 45.65 31.47L58.19 31.47L58.19 46.31ZM38 2.97C44.55 2.97 49.88 8.3 49.88 14.84C49.88 20.36 41.18 33.1 38 37.55C34.77 33.03 26.12 20.3 26.12 14.84C26.12 8.3 31.45 2.97 38 2.97ZM2.97 67.09C2.97 63.82 5.63 61.16 8.91 61.16C12.18 61.16 14.84 63.82 14.84 67.09C14.84 67.91 15.51 68.58 16.33 68.58C17.15 68.58 17.81 67.91 17.81 67.09L17.81 42.35L32.88 56.7L15.73 73.03L9.33 73.03C6 73.03 2.97 70.54 2.97 67.09ZM36.05 57.78C36.35 57.5 36.52 57.11 36.52 56.7C36.52 56.3 36.35 55.91 36.05 55.63L17.81 38.25L17.81 31.47L19.3 31.47C19.4 31.57 36.86 48.2 37.57 48.87C37.85 49.13 38.21 49.28 38.59 49.28L58.19 49.28L58.19 55.22L46.91 55.22C46.51 55.22 46.14 55.38 45.86 55.65L28.48 73.03L20.04 73.03L36.05 57.78ZM67.09 73.03L32.68 73.03L47.52 58.19L58.19 58.19L58.19 67.09C58.19 67.91 58.85 68.58 59.67 68.58C60.49 68.58 61.16 67.91 61.16 67.09C61.16 63.25 64.75 60.34 68.7 61.36C71.11 61.99 73.03 64.21 73.03 67.09C73.03 70.37 70.37 73.03 67.09 73.03ZM38 22.27C42.09 22.27 45.42 18.94 45.42 14.84C45.42 10.75 42.09 7.42 38 7.42C33.91 7.42 30.58 10.75 30.58 14.84C30.58 18.94 33.91 22.27 38 22.27ZM38 10.39C40.46 10.39 42.45 12.39 42.45 14.84C42.45 17.3 40.46 19.3 38 19.3C35.54 19.3 33.55 17.3 33.55 14.84C33.55 12.39 35.54 10.39 38 10.39ZM1.48 41.27C2.3 41.27 2.97 40.6 2.97 39.78C2.97 38.96 2.3 38.3 1.48 38.3C0.67 38.3 0 38.96 0 39.78C0 40.6 0.67 41.27 1.48 41.27Z" />
		</g>
	</g>
</svg>