<svg version="1.2" baseProfile="tiny-ps" xmlns="http://www.w3.org/2000/svg" viewBox="0 0 83 74" width="83" height="74">
	<title>S3_services_v3</title>
	<style>
		tspan { white-space:pre }
		.shp0 { fill: #000000 } 
	</style>
	<g id="body">
		<g id="orange">
			<path id="Shape 6" class="shp0" d="M81.16 21.96L42.24 1.18C41.78 0.94 41.22 0.94 40.76 1.18L1.84 21.96C1.32 22.23 1 22.77 1 23.35L1 55C1 55.87 1.71 56.58 2.58 56.58C3.46 56.58 4.16 55.87 4.16 55L4.16 24.3L41.5 4.37L78.84 24.3L78.84 28.1C78.84 28.98 79.54 29.69 80.42 29.69C81.29 29.69 82 28.98 82 28.1L82 23.35C82 22.77 81.68 22.23 81.16 21.96ZM80.42 39.19C79.54 39.19 78.84 39.9 78.84 40.77L78.84 70.83L4.16 70.83L4.16 67.67C4.16 66.79 3.46 66.08 2.58 66.08C1.71 66.08 1 66.79 1 67.67L1 72.42C1 73.29 1.71 74 2.58 74L80.42 74C81.29 74 82 73.29 82 72.42L82 40.77C82 39.9 81.29 39.19 80.42 39.19ZM41.5 51.88C46.26 51.88 50.13 48 50.13 43.24C50.13 38.48 46.26 34.6 41.5 34.6C36.74 34.6 32.87 38.48 32.87 43.24C32.87 48 36.74 51.88 41.5 51.88ZM41.5 37.77C44.51 37.77 46.97 40.22 46.97 43.24C46.97 46.26 44.51 48.71 41.5 48.71C38.49 48.71 36.03 46.26 36.03 43.24C36.03 40.22 38.49 37.77 41.5 37.77ZM21.19 38.03C20.31 38.03 19.6 38.74 19.6 39.61L19.6 46.87C19.6 47.75 20.31 48.45 21.19 48.45L24.31 48.45C24.65 49.58 25.1 50.68 25.66 51.72L23.45 53.93C23.16 54.23 22.99 54.63 22.99 55.05C22.99 55.47 23.16 55.87 23.45 56.17L28.58 61.3C29.2 61.92 30.2 61.92 30.82 61.3L33.03 59.09C34.07 59.65 35.16 60.1 36.29 60.44L36.29 63.57C36.29 64.45 37 65.15 37.87 65.15L45.13 65.15C46 65.15 46.71 64.45 46.71 63.57L46.71 60.44C47.84 60.1 48.93 59.65 49.97 59.09L52.18 61.3C52.8 61.92 53.8 61.92 54.42 61.3L59.55 56.17C59.84 55.87 60.01 55.47 60.01 55.05C60.01 54.63 59.84 54.23 59.55 53.93L57.34 51.72C57.9 50.68 58.35 49.58 58.69 48.45L61.81 48.45C62.69 48.45 63.4 47.75 63.4 46.87L63.4 39.61C63.4 38.74 62.69 38.03 61.81 38.03L58.69 38.03C58.35 36.9 57.9 35.81 57.34 34.76L59.55 32.55C60.17 31.93 60.17 30.93 59.55 30.31L54.42 25.18C53.8 24.56 52.8 24.56 52.18 25.18L49.97 27.39C48.93 26.83 47.84 26.38 46.71 26.04L46.71 22.91C46.71 22.04 46 21.33 45.13 21.33L37.87 21.33C37 21.33 36.29 22.04 36.29 22.91L36.29 26.04C35.16 26.38 34.07 26.83 33.03 27.39L30.82 25.18C30.52 24.88 30.12 24.71 29.7 24.71C29.28 24.71 28.88 24.88 28.58 25.18L23.45 30.31C22.84 30.93 22.84 31.93 23.45 32.55L25.66 34.76C25.1 35.81 24.65 36.9 24.31 38.03L21.19 38.03L21.19 38.03ZM27.07 39.96C27.44 38.32 28.08 36.77 28.98 35.35C29.38 34.73 29.28 33.91 28.76 33.39L26.81 31.43L29.7 28.54L31.65 30.49C32.18 31.02 32.99 31.11 33.62 30.71C35.04 29.81 36.59 29.17 38.22 28.8C38.94 28.64 39.45 28 39.45 27.26L39.45 24.49L43.55 24.49L43.55 27.26C43.55 28 44.06 28.64 44.78 28.8C46.41 29.17 47.96 29.81 49.38 30.71C50.01 31.11 50.82 31.02 51.35 30.49L53.3 28.54L56.19 31.43L54.24 33.39C53.72 33.91 53.62 34.73 54.02 35.35C54.92 36.77 55.56 38.32 55.93 39.96C56.09 40.68 56.73 41.19 57.47 41.19L60.23 41.19L60.23 45.29L57.47 45.29C56.73 45.29 56.09 45.8 55.93 46.52C55.56 48.16 54.92 49.71 54.02 51.13C53.62 51.76 53.72 52.57 54.24 53.09L56.19 55.05L53.3 57.94L51.35 55.99C50.82 55.47 50.01 55.38 49.38 55.77C47.96 56.67 46.41 57.31 44.78 57.68C44.06 57.84 43.55 58.49 43.55 59.23L43.55 61.99L39.45 61.99L39.45 59.23C39.45 58.49 38.94 57.84 38.22 57.68C36.59 57.31 35.04 56.67 33.62 55.77C32.99 55.38 32.18 55.47 31.65 55.99L29.7 57.94L26.81 55.05L28.76 53.1C29.28 52.57 29.38 51.76 28.98 51.13C28.08 49.71 27.44 48.16 27.07 46.52C26.91 45.8 26.27 45.29 25.53 45.29L22.77 45.29L22.77 41.19L25.53 41.19C26.27 41.19 26.91 40.68 27.07 39.96ZM2.58 62.92C3.45 62.92 4.16 62.2 4.16 61.33C4.16 60.46 3.45 59.75 2.58 59.75C1.71 59.75 1 60.46 1 61.33C1 62.2 1.71 62.92 2.58 62.92ZM80.42 32.85C79.55 32.85 78.84 33.57 78.84 34.44C78.84 35.31 79.55 36.02 80.42 36.02C81.29 36.02 82 35.31 82 34.44C82 33.57 81.29 32.85 80.42 32.85Z" />
		</g>
	</g>
</svg>