<svg version="1.2" baseProfile="tiny-ps" xmlns="http://www.w3.org/2000/svg" viewBox="0 0 78 78" width="78" height="78">
	<title>S3_services_v3</title>
	<style>
		tspan { white-space:pre }
		.shp0 { fill: #ec7123 } 
	</style>
	<g id="body">
		<g id="gray">
			<path id="Shape 4" class="shp0" d="M12.23 13.79C9.57 13.79 7.41 15.95 7.41 18.61L7.41 31.45L10.62 31.45L10.62 18.61C10.62 17.72 11.34 17 12.23 17L50.73 17L50.73 13.79L12.23 13.79ZM12.23 61.95C11.34 61.95 10.62 61.23 10.62 60.34L10.62 44.29L7.41 44.29L7.41 60.34C7.41 63 9.57 65.16 12.23 65.16L28.27 65.16L28.27 61.95L12.23 61.95ZM51.86 66.09L12.9 27.1C12.28 26.48 11.26 26.48 10.63 27.1L1.47 36.28C0.84 36.9 0.84 37.92 1.47 38.55L40.43 77.53C40.73 77.83 41.14 78 41.56 78C41.99 78 42.39 77.83 42.7 77.53L51.86 68.36C52.49 67.73 52.49 66.71 51.86 66.09ZM41.56 74.12L4.87 37.41L11.77 30.51L48.46 67.22L41.56 74.12ZM71.58 61.95L47.52 61.95L47.52 65.16L65.17 65.16L65.17 73.18C65.17 74.07 65.88 74.79 66.77 74.79L71.58 74.79C75.13 74.79 78 71.91 78 68.37C78 64.82 75.13 61.95 71.58 61.95ZM71.58 71.58L68.37 71.58L68.37 65.16L71.58 65.16C73.36 65.16 74.79 66.6 74.79 68.37C74.79 70.14 73.36 71.58 71.58 71.58ZM71.58 13.79L63.56 13.79L63.56 17L71.58 17C73.36 17 74.79 18.44 74.79 20.21L74.79 68.37L78 68.37L78 20.21C78 16.67 75.13 13.79 71.58 13.79ZM25.53 51.18L30.34 46.37L32.61 48.64L27.8 53.45L25.53 51.18ZM19.11 44.76L23.93 39.95L26.2 42.22L21.38 47.03L19.11 44.76ZM31.94 57.6L36.76 52.79L39.03 55.06L34.21 59.87L31.94 57.6ZM38.36 64.03L43.18 59.21L45.45 61.48L40.63 66.3L38.36 64.03ZM12.69 38.34L17.51 33.52L19.77 35.79L14.96 40.61L12.69 38.34ZM70.19 4.56L67.98 2.34C66.1 0.55 63.15 0.55 61.27 2.34L36.88 26.75C36.25 27.38 36.25 28.39 36.88 29.02L43.53 35.68C43.83 35.98 44.24 36.15 44.67 36.15C45.09 36.15 45.5 35.98 45.8 35.68L70.19 11.27C70.19 11.27 70.2 11.27 70.2 11.27C72.05 9.41 72.05 6.41 70.19 4.56ZM67.93 9L44.67 32.27L40.28 27.88L63.54 4.61C64.15 4.03 65.1 4.03 65.71 4.61L67.93 6.83C67.93 6.83 67.93 6.83 67.93 6.83C68.53 7.43 68.53 8.4 67.93 9ZM44.15 33.02L37.23 35.33L39.54 28.39L36.49 27.38L33.16 37.36C33.11 37.53 33.08 37.7 33.08 37.87C33.08 38.76 33.8 39.48 34.69 39.48C34.86 39.48 35.02 39.45 35.19 39.4L45.17 36.07L44.15 33.02ZM56.84 9.05L59.1 6.78L65.76 13.43L63.49 15.7L56.84 9.05ZM34.69 36.26L58.75 36.26L58.75 39.48L34.69 39.48L34.69 36.26ZM61.96 36.26L65.17 36.26L65.17 39.48L61.96 39.48L61.96 36.26ZM68.37 36.26L71.58 36.26L71.58 39.48L68.37 39.48L68.37 36.26Z" />
		</g>
	</g>
</svg>