<svg version="1.2" baseProfile="tiny-ps" xmlns="http://www.w3.org/2000/svg" viewBox="0 0 97 97" width="97" height="97">
	<title>S3_services_v3</title>
	<style>
		tspan { white-space:pre }
		.shp0 { fill: #000000 } 
	</style>
	<g id="body">
		<g id="gray copy">
			<path id="Shape 9" class="shp0" d="M80 48C80.88 48 81.6 47.28 81.6 46.4L81.6 24L94.4 24C95.28 24 96 23.28 96 22.4L96 16C95.99 15.94 95.98 15.88 95.96 15.82C95.95 15.71 95.93 15.59 95.9 15.48C95.87 15.4 95.83 15.32 95.79 15.25C95.64 14.98 95.42 14.75 95.15 14.61C95.07 14.56 94.98 14.53 94.9 14.5C94.85 14.48 94.81 14.45 94.76 14.44L33.96 0.04C33.85 0.01 33.72 0 33.6 0L27.2 0C27.01 0.01 26.82 0.04 26.65 0.11C26.6 0.13 26.56 0.14 26.52 0.16C26.48 0.18 26.45 0.19 26.41 0.21L0.81 14.61C0.74 14.66 0.66 14.72 0.59 14.78C0.54 14.82 0.49 14.86 0.44 14.91C0.31 15.04 0.2 15.2 0.12 15.38L0.12 15.4C0.05 15.57 0.02 15.76 0.01 15.95C0.01 15.97 0 15.98 0 16L0 22.4C0 23.29 0.72 24 1.6 24L24 24L24 53.74L18.07 59.67C17.77 59.97 17.6 60.38 17.6 60.8L17.6 86.4L14.4 86.4L14.4 96L46.4 96L46.4 86.4L43.2 86.4L43.2 60.8C43.2 60.38 43.03 59.97 42.73 59.67L36.8 53.74L36.8 24L68.8 24L68.8 46.4C68.8 47.28 69.52 48 70.4 48L73.6 48L73.6 52.8C73.6 53.68 74.32 54.4 75.2 54.4C76.97 54.4 78.4 55.83 78.4 57.6C78.4 59.37 76.97 60.8 75.2 60.8C73.43 60.8 72 59.37 72 57.6L72 56L68.8 56L68.8 57.6C68.81 59.94 70.09 62.08 72.15 63.19L60.14 75.2L56 75.2C55.12 75.2 54.4 75.92 54.4 76.8L54.4 91.2C54.4 92.08 55.12 92.8 56 92.8L94.4 92.8C95.28 92.8 96 92.08 96 91.2L96 76.8C96 75.92 95.28 75.2 94.4 75.2L90.26 75.2L78.25 63.19C81.35 61.52 82.51 57.65 80.84 54.56C79.99 52.99 78.53 51.84 76.8 51.4L76.8 48L80 48ZM81.6 17.6L92.8 17.6L92.8 20.8L81.6 20.8L81.6 17.6ZM92.8 78.4L92.8 89.6L57.6 89.6L57.6 78.4L92.8 78.4ZM85.74 75.2L64.66 75.2L75.2 64.66L85.74 75.2ZM78.4 38.4L72 38.4L72 24L78.4 24L78.4 38.4ZM78.4 20.8L72 20.8L72 17.6L78.4 17.6L78.4 20.8ZM28.8 3.2L32 3.2L32 14.4L28.8 14.4L28.8 3.2ZM27.2 17.6L33.6 17.6L33.6 20.14L32.94 20.8L27.2 20.8L27.2 17.6ZM33.6 24.66L33.6 36.14L27.86 30.4L33.6 24.66ZM27.2 24L29.74 24L27.2 26.54L27.2 24ZM27.2 34.26L32.94 40L27.2 45.74L27.2 34.26ZM33.6 43.86L33.6 54.4L33.6 55.34L27.86 49.6L33.6 43.86ZM27.2 54.4L27.2 53.46L32.94 59.2L27.2 64.94L27.2 54.4ZM33.6 63.06L33.6 74.54L27.86 68.8L33.6 63.06ZM27.2 72.66L32.94 78.4L27.2 84.14L27.2 72.66ZM33.6 82.26L33.6 86.4L29.46 86.4L33.6 82.26ZM25.6 4.34L25.6 14.4L7.71 14.4L25.6 4.34ZM3.2 20.8L3.2 17.6L24 17.6L24 20.8L3.2 20.8ZM20.8 61.46L24 58.26L24 86.4L20.8 86.4L20.8 61.46ZM43.2 89.6L43.2 92.8L17.6 92.8L17.6 89.6L43.2 89.6ZM40 61.46L40 86.4L36.8 86.4L36.8 58.26L40 61.46ZM68.8 20.8L36.8 20.8L36.8 17.6L68.8 17.6L68.8 20.8ZM35.2 14.4L35.2 3.62L80.7 14.4L80 14.4L35.2 14.4ZM72 44.8L72 41.6L78.4 41.6L78.4 44.8L72 44.8Z" />
		</g>
	</g>
</svg>