<?xml version="1.0" encoding="utf-8"?>
<!-- Generator: Adobe Illustrator 25.4.1, SVG Export Plug-In . SVG Version: 6.00 Build 0)  -->
<svg version="1.1" id="Layer_1" xmlns="http://www.w3.org/2000/svg" xmlns:xlink="http://www.w3.org/1999/xlink" x="0px" y="0px"
	 viewBox="0 0 40 40" style="enable-background:new 0 0 40 40;" xml:space="preserve">
<style type="text/css">
	.st0{fill:#FFFFFF;}
</style>
<g>
	<path class="st0" d="M18.69,36.3c-0.96-0.28-1.69-0.87-2.18-1.73c-0.46-0.82-0.56-1.7-0.49-2.65c0.27,0.02,0.39,0.18,0.46,0.38
		c0.07,0.2,0.13,0.42,0.21,0.62c0.18,0.43,0.43,0.61,0.78,0.57c0.48-0.05,0.89-0.38,0.99-0.8c0.09-0.39-0.08-0.84-0.46-1
		c-0.33-0.14-0.7-0.2-1.06-0.27c-0.46-0.09-0.93-0.11-1.39,0.05c-0.46-0.75-0.89-1.51-1.37-2.24c-0.43-0.66-0.92-1.28-1.39-1.91
		c-0.37-0.5-0.54-1.07-0.67-1.67c-0.19-0.88-0.29-1.78-0.07-2.67c0.07-0.28,0.22-0.55,0.37-0.81c0.09-0.16,0.22-0.17,0.39-0.03
		c0.41,0.36,0.85,0.69,1.27,1.02c0.8,0.64,1.74,0.92,2.75,0.99c0.41,0.03,0.81,0.11,1.27,0.17c-0.15-0.25-0.28-0.51-0.45-0.73
		c-0.54-0.72-1.28-1.15-2.13-1.4c-0.82-0.24-1.6-0.55-2.32-1.01c-0.23-0.14-0.44-0.31-0.64-0.48c-0.43-0.36-0.64-0.85-0.71-1.4
		c-0.17-1.42-0.13-2.83,0.3-4.21c0.34-1.07,1.01-1.77,2.09-2.13c1.1-0.36,2.21-0.64,3.36-0.73c1.23-0.1,2.46-0.16,3.69-0.15
		c1.24,0.01,2.45,0.23,3.61,0.68c1.79,0.69,2.95,1.92,3.3,3.85c0.15,0.85,0.29,1.7,0.1,2.57c-0.17,0.79-0.61,1.38-1.33,1.73
		c-0.59,0.29-1.21,0.53-1.83,0.77c-0.82,0.32-1.63,0.63-2.26,1.27c-0.37,0.38-0.6,0.83-0.65,1.4c1.93-0.36,3.69-0.99,5.05-2.51
		c0.33,0.11,0.58,0.36,0.76,0.68c0.41,0.72,0.45,1.5,0.27,2.27c-0.5,2.18-1.48,4.11-3.06,5.71c-0.47,0.48-0.87,1-1.1,1.66
		c-0.17-0.12-0.31-0.24-0.48-0.33c-0.37-0.21-0.77-0.34-1.2-0.25c-0.41,0.08-0.63,0.32-0.67,0.73c-0.04,0.38,0.07,0.72,0.3,1.01
		c0.31,0.39,0.86,0.4,1.18,0c0.17-0.21,0.25-0.48,0.37-0.73c0.03-0.07,0.04-0.16,0.07-0.23c0.26,0.09,0.47,0.35,0.44,0.59
		c-0.15,1.05-0.48,2.01-1.34,2.71c-0.5,0.41-1.11,0.48-1.71,0.58c-0.07,0.01-0.14,0.03-0.22,0.05C20.17,36.3,19.43,36.3,18.69,36.3z
		"/>
	<path class="st0" d="M1.66,12.27c0.09-0.47,0.16-0.94,0.28-1.4c0.64-2.56,2.2-4.38,4.56-5.5c1.16-0.55,2.39-0.98,3.58-1.46
		c0.1-0.04,0.2-0.08,0.33-0.07c-0.13,0.11-0.26,0.23-0.39,0.34C8.84,5.2,7.7,6.26,6.79,7.55C6.64,7.77,6.51,8,6.38,8.24
		c-0.54,0.94-0.27,1.84,0.2,2.7c0.55,1,1.45,1.58,2.51,1.94c0.93,0.31,1.9,0.41,2.87,0.41c0.13,0,0.26,0,0.43,0
		c-0.22,0.46-0.46,0.88-0.62,1.32c-0.3,0.8-0.59,1.6-0.83,2.42c-0.16,0.54-0.18,1.1,0.06,1.68c-0.52-0.03-1.02-0.05-1.5-0.1
		c-1.16-0.12-2.31-0.33-3.41-0.71c-1.1-0.37-2.13-0.87-2.97-1.69c-0.81-0.78-1.3-1.72-1.4-2.85c0-0.03-0.02-0.06-0.04-0.09
		C1.66,12.94,1.66,12.6,1.66,12.27z"/>
	<path class="st0" d="M38.34,13.17c-0.07,0.33-0.11,0.66-0.21,0.98c-0.35,1.18-1.1,2.06-2.12,2.72c-1.28,0.83-2.7,1.25-4.19,1.48
		c-0.73,0.11-1.47,0.15-2.2,0.22c-0.07,0.01-0.13,0-0.21,0c0.33-0.98,0.04-1.9-0.27-2.79c-0.28-0.79-0.64-1.55-0.96-2.32
		c-0.04-0.08-0.08-0.16-0.13-0.29c0.3,0,0.56,0.01,0.82,0c1.18-0.06,2.33-0.25,3.37-0.88c1.11-0.68,1.7-1.69,1.85-2.96
		c0.04-0.31-0.06-0.67-0.18-0.97c-0.35-0.87-0.92-1.6-1.56-2.27c-0.78-0.82-1.61-1.59-2.42-2.38c0.05,0,0.1,0,0.15,0
		c0.15,0.07,0.3,0.14,0.45,0.21c1.1,0.47,2.23,0.88,3.29,1.42c2.21,1.12,3.62,2.9,4.22,5.31c0.12,0.5,0.2,1.01,0.3,1.52
		C38.34,12.5,38.34,12.84,38.34,13.17z"/>
</g>
</svg>
