<?xml version="1.0" encoding="utf-8"?>
<!-- Generator: Adobe Illustrator 25.4.1, SVG Export Plug-In . SVG Version: 6.00 Build 0)  -->
<svg version="1.1" id="Layer_1" xmlns="http://www.w3.org/2000/svg" xmlns:xlink="http://www.w3.org/1999/xlink" x="0px" y="0px"
	 viewBox="0 0 40 40" style="enable-background:new 0 0 40 40;" xml:space="preserve">
<style type="text/css">
	.st0{fill:#FFFFFF;}
</style>
<g>
	<path class="st0" d="M6.82,6.17c1.87,0,3.68,0,5.54,0c0,7.39,0,14.74,0,22.15c6.95,0,13.84,0,20.77,0c0,1.86,0,3.66,0,5.51
		c-0.17,0.01-0.32,0.02-0.48,0.02c-6.87,0-13.73,0.01-20.6,0c-2.73,0-4.76-1.73-5.19-4.39c-0.04-0.22-0.04-0.45-0.04-0.67
		c0-7.38,0-14.77,0-22.15C6.82,6.5,6.82,6.36,6.82,6.17z"/>
	<path class="st0" d="M32.8,26.51c-0.48,0-0.85,0-1.21,0c-1.6,0-3.21-0.02-4.81,0.01c-0.4,0.01-0.63-0.13-0.85-0.46
		c-1.3-1.93-2.63-3.83-3.95-5.75c-0.1-0.14-0.2-0.28-0.35-0.48c-0.43,0.51-0.85,0.98-1.24,1.48c-0.08,0.11-0.08,0.3-0.08,0.45
		c-0.01,1.56,0,3.11,0,4.7c-1.85,0-3.67,0-5.53,0c-0.01-0.18-0.02-0.35-0.02-0.52c0-6.42,0-12.84-0.01-19.26
		c0-0.44,0.11-0.57,0.56-0.56c1.49,0.03,2.98,0.01,4.48,0.01c0.16,0,0.31,0,0.52,0c0,2.75,0,5.45,0,8.27
		c0.16-0.18,0.24-0.27,0.32-0.36c1.94-2.49,3.89-4.98,5.82-7.48c0.24-0.31,0.48-0.44,0.88-0.44c1.75,0.02,3.5,0.01,5.25,0.01
		c0.17,0,0.34,0,0.63,0c-0.66,0.78-1.23,1.46-1.81,2.15c-1.94,2.29-3.87,4.59-5.82,6.87c-0.23,0.27-0.13,0.43,0.02,0.66
		c2.29,3.38,4.58,6.77,6.87,10.16C32.55,26.12,32.64,26.26,32.8,26.51z"/>
</g>
</svg>
