<?xml version="1.0" encoding="utf-8"?>
<!-- Generator: Adobe Illustrator 25.4.1, SVG Export Plug-In . SVG Version: 6.00 Build 0)  -->
<svg version="1.1" id="Layer_1" xmlns="http://www.w3.org/2000/svg" xmlns:xlink="http://www.w3.org/1999/xlink" x="0px" y="0px"
	 viewBox="0 0 40 40" style="enable-background:new 0 0 40 40;" xml:space="preserve">
<style type="text/css">
	.st0{fill:#FFFFFF;}
	.st1{fill:none;stroke:#070707;stroke-width:0.25;stroke-miterlimit:10;}
</style>
<g>
	<path class="st0" d="M19.42,37.65c0,0-3.16-0.49-3.65-1.95c0,0,1.22-1.45,0-2.43c0,0-1.7-0.98-1.46,1.21c0,0-6.08-1.46-6.57-8.03
		c0,0,1.46,0.73,1.7-1.7C9.69,22.32,9.2,14.29,9.2,14.29s-0.49-0.97-1.46,0s-1.18-0.43-1.18-0.43s-0.98,2-0.75,0
		c0.23-2-0.74-3.22-0.74-3.22S4.58,7.24,6.28,6.26s5.11-1.46,3.65,2.92c0,0,3.89-2.92,6.81-2.92c0,0,1.46-3.19,2.68-2.69"/>
	<path class="st1" d="M19.9,36.59c0,0-2.69-0.34-3.02-1.35c0,0,0.7-1.03,0.23-2.09c0,0-1.46-2.43-3.43-0.22c0,0-4.23-1.02-4.57-5.58
		c0,0,1.02,0.51,1.18-1.18s0-11.99,0-11.99s-0.24-1.7-1.95-1.22c-0.92,0.26-1.28-0.7-1.28-0.7s-0.68,1.39-0.52,0
		c0.16-1.39-0.52-2.24-0.52-2.24S5.85,7.88,6.87,6.98c1.47-1.32,3.91-1.32,2.45,3.3c0,0,5.35-4.14,8.03-3.16
		c0,0,1.34-3.27,2.19-2.92"/>
	<path class="st0" d="M19.11,37.65c0,0,3.16-0.49,3.65-1.95c0,0-1.22-1.45,0-2.43c0,0,1.7-0.98,1.46,1.21c0,0,6.08-1.46,6.57-8.03
		c0,0-1.46,0.73-1.7-1.7s0.24-10.46,0.24-10.46s0.49-0.97,1.46,0s1.18-0.43,1.18-0.43s0.98,2,0.75,0c-0.23-2,0.74-3.22,0.74-3.22
		s0.49-3.41-1.22-4.38S27.14,4.8,28.6,9.18c0,0-3.89-2.92-6.81-2.92c0,0-1.46-3.19-2.68-2.69"/>
	<path class="st1" d="M19.03,4.33c0,0,0.75-0.87,2.21,2.05l0.24,0.49c0,0,3.16,0,7.54,3.41c0,0-1.22-5.35,1.7-4.14
		c2.92,1.22,2.19,4.14,2.19,4.14s-1.22,2.43-0.97,3.16c0.24,0.73-0.73-0.97-0.73-0.97s0.49,2.19-1.7,0.49s-1.22,14.11-1.22,14.11
		s0.24,1.22,1.46,0.49c1.22-0.73-1.95,5.84-4.87,5.84c0,0-1.95-2.19-2.92,0.24c0,0-0.73,0.97,0,1.95c0,0-1.58,1-2.86,0.87"/>
	<path class="st1" d="M17.35,7.12c0,0,1.46-0.73,4.14-0.24"/>
	<line class="st1" x1="19.41" y1="6.71" x2="19.42" y2="36.51"/>
	<line class="st1" x1="10.35" y1="20.02" x2="28.08" y2="20.02"/>
</g>
</svg>
