<?xml version="1.0" encoding="utf-8"?>
<!-- Generator: Adobe Illustrator 25.4.1, SVG Export Plug-In . SVG Version: 6.00 Build 0)  -->
<svg version="1.1" id="Layer_1" xmlns="http://www.w3.org/2000/svg" xmlns:xlink="http://www.w3.org/1999/xlink" x="0px" y="0px"
	 viewBox="0 0 40 40" style="enable-background:new 0 0 40 40;" xml:space="preserve">
<style type="text/css">
	.st0{fill:#FFFFFF;}
</style>
<g>
	<path class="st0" d="M4.6,18.59c0.44-1.47,0.7-3.02,1.34-4.39c2.42-5.22,6.51-8.3,12.27-8.97c1.39-0.16,2.81-0.02,4.3,0.16
		c-0.17,0.14-0.32,0.29-0.5,0.41c-1.2,0.84-2.41,1.67-3.62,2.51C18.26,8.4,18.12,8.5,18,8.62c-1.55,1.57-1.93,2.29,0.26,3.48
		c1.43,0.78,1.5,1.64,0.25,2.68c-1.3,1.09-2.67,2.08-4.01,3.11c-0.22,0.17-0.43,0.35-0.64,0.53c-1.73,1.45-2.93,3.09-1.88,5.49
		c-1.28,0.8-2.57,0.65-3.72,0.06C6.98,23.32,5.82,22.4,4.6,21.6C4.6,20.59,4.6,19.59,4.6,18.59z"/>
	<path class="st0" d="M35.24,19.07c-0.45-0.62-0.87-1.28-1.37-1.85c-1.09-1.27-2.47-1.41-4.01-0.97c-1.16,0.33-2.34,0.67-3.53,0.81
		c-0.55,0.07-1.15-0.33-1.95-0.59c0.45-0.32,0.66-0.45,0.85-0.6c1.23-0.95,1.47-2.21,0.59-3.5c-0.35-0.52-0.82-0.98-1.27-1.43
		c-0.37-0.37-0.81-0.67-1.2-1.03c-2.14-1.94-1.21-3.13,0.82-4.09c0.21-0.1,0.54-0.03,0.78,0.06c5.26,1.96,8.66,5.61,10.04,11.08
		c0.17,0.69,0.27,1.4,0.4,2.09C35.35,19.06,35.3,19.07,35.24,19.07z"/>
	<path class="st0" d="M27.58,33.75c1.09-1.12,1.89-2.29,2.26-3.74c0.25-0.97,0.14-1.84-0.29-2.73c-0.6-1.28-1.12-2.58-0.75-4.06
		c0.39-1.55,1.62-2.81,3.23-2.92c0.94-0.06,1.91,0.16,2.85,0.36c0.21,0.05,0.49,0.52,0.48,0.78c-0.33,5.24-2.82,9.23-7.12,12.15
		c-0.11,0.08-0.24,0.14-0.36,0.2C27.84,33.8,27.78,33.77,27.58,33.75z"/>
	<path class="st0" d="M18.46,34.85c-0.18-0.97-0.3-1.84-0.49-2.69c-0.27-1.18-1.02-1.89-2.23-2.17c-1.12-0.27-2.25-0.58-3.32-0.99
		c-1.25-0.48-1.44-1.27-0.7-2.34c1.92-2.77,5-3.2,7.56-1.09c0.96,0.79,1.28,1.86,1.34,3.01C20.73,30.36,19.89,32.96,18.46,34.85z"/>
</g>
</svg>
