<svg version="1.2" baseProfile="tiny-ps" xmlns="http://www.w3.org/2000/svg" viewBox="0 0 74 85" width="74" height="85">
	<title>S3_services_v3</title>
	<style>
		tspan { white-space:pre }
		.shp0 { fill: #ec7123 } 
	</style>
	<g id="body">
		<g id="white copy">
			<path id="Shape 8" class="shp0" d="M38.79 85C36.97 85 35.26 84.29 33.97 83.01L21.03 70.12L18.75 72.39C17.46 73.68 15.75 74.39 13.93 74.39C12.11 74.39 10.39 73.68 9.1 72.39L2 65.32C0.71 64.03 0 62.33 0 60.51C0 58.7 0.71 56.99 2 55.71L15.03 42.72C22.52 35.26 27.58 25.86 29.65 15.51L29.75 15.03L29.58 14.78C27.76 12.09 28.11 8.47 30.42 6.17C31.7 4.89 33.42 4.19 35.24 4.19C37.07 4.19 38.78 4.89 40.07 6.17L68.48 34.48C71.14 37.13 71.14 41.44 68.48 44.09C67.2 45.37 65.48 46.08 63.66 46.08C62.29 46.08 60.97 45.67 59.84 44.92L59.6 44.75L59.11 44.85C51.81 46.3 45.03 49.19 38.95 53.42L38.26 53.91L40.07 55.71C41.36 56.99 42.07 58.7 42.07 60.51C42.07 62.33 41.36 64.03 40.07 65.32L37.79 67.59L43.62 73.4C44.91 74.68 45.61 76.38 45.61 78.2C45.61 80.02 44.91 81.73 43.62 83.01C42.33 84.29 40.62 85 38.79 85ZM23.58 67.59L36.51 80.47C37.12 81.08 37.93 81.41 38.79 81.41C39.66 81.41 40.47 81.08 41.07 80.47C42.33 79.22 42.33 77.18 41.07 75.93L28.14 63.05L23.58 67.59ZM4.55 58.24C3.94 58.85 3.6 59.65 3.6 60.51C3.6 61.37 3.94 62.17 4.55 62.78L11.65 69.86C12.26 70.46 13.07 70.8 13.93 70.8C14.79 70.8 15.6 70.46 16.21 69.86L29.14 56.97L17.48 45.36L4.55 58.24ZM34.9 56.55C33.24 57.96 32.12 59.08 31.38 59.82L30.68 60.51L35.24 65.05L37.52 62.78C38.78 61.53 38.78 59.49 37.52 58.24L35.4 56.12L34.9 56.55ZM32.47 19.34C30.25 27.87 26.18 35.58 20.39 42.25L19.95 42.75L31.76 54.51L32.26 54.08C38.96 48.3 46.7 44.26 55.27 42.05L56.47 41.74L32.78 18.13L32.47 19.34ZM35.24 7.77C34.38 7.77 33.57 8.1 32.96 8.71C31.71 9.96 31.71 12 32.96 13.25L61.38 41.55C61.99 42.16 62.8 42.49 63.66 42.49C64.52 42.49 65.33 42.16 65.94 41.55C67.2 40.3 67.2 38.26 65.94 37.01L37.52 8.71C36.91 8.1 36.1 7.77 35.24 7.77ZM13.93 62.3C13.45 62.3 13 62.12 12.66 61.78C12.32 61.44 12.13 60.99 12.13 60.51C12.13 60.03 12.32 59.58 12.66 59.24L16.21 55.71C16.55 55.37 17 55.18 17.48 55.18C17.96 55.18 18.41 55.37 18.75 55.71C19.09 56.04 19.28 56.49 19.28 56.97C19.28 57.45 19.09 57.9 18.75 58.24L15.2 61.78C14.86 62.12 14.41 62.3 13.93 62.3ZM52.11 9.59C51.11 9.59 50.31 8.78 50.31 7.8L50.31 2.79C50.31 1.8 51.11 1 52.11 1C53.1 1 53.91 1.8 53.91 2.79L53.91 7.8C53.91 8.78 53.1 9.59 52.11 9.59ZM67.18 24.6C66.18 24.6 65.38 23.79 65.38 22.81C65.38 21.82 66.18 21.01 67.18 21.01L72.2 21.01C73.19 21.01 74 21.82 74 22.81C74 23.79 73.19 24.6 72.2 24.6L67.18 24.6ZM62.15 14.59C61.67 14.59 61.22 14.4 60.88 14.07C60.54 13.73 60.35 13.28 60.35 12.8C60.35 12.32 60.54 11.87 60.88 11.53L65.9 6.53C66.24 6.19 66.7 6 67.18 6C67.66 6 68.11 6.19 68.45 6.53C68.79 6.87 68.98 7.32 68.98 7.8C68.98 8.27 68.79 8.72 68.45 9.06L63.43 14.07C63.09 14.4 62.63 14.59 62.15 14.59L62.15 14.59Z" />
		</g>
	</g>
</svg>