<?xml version="1.0" encoding="utf-8"?>
<!-- Generator: Adobe Illustrator 25.4.1, SVG Export Plug-In . SVG Version: 6.00 Build 0)  -->
<svg version="1.1" id="Layer_1" xmlns="http://www.w3.org/2000/svg" xmlns:xlink="http://www.w3.org/1999/xlink" x="0px" y="0px"
	 viewBox="0 0 40 40" style="enable-background:new 0 0 40 40;" xml:space="preserve">
<style type="text/css">
	.st0{fill:#FFFFFF;}
</style>
<g>
	<path class="st0" d="M25.2,15.81c1.77-1.86,3.54-3.72,5.36-5.62c-0.56-0.12-1.07-0.23-1.57-0.34c-0.28-0.06-0.62-0.07-0.65-0.45
		c-0.03-0.37,0.29-0.43,0.54-0.55c1.89-0.86,3.79-1.72,5.68-2.58c0.08-0.03,0.15-0.1,0.23-0.1c0.17,0,0.4-0.02,0.5,0.07
		c0.1,0.1,0.15,0.35,0.1,0.49c-0.24,0.69-0.52,1.37-0.78,2.06c-0.5,1.3-1,2.61-1.5,3.91c-0.09,0.24-0.19,0.48-0.5,0.47
		c-0.33,0-0.41-0.26-0.49-0.51c-0.16-0.5-0.32-1-0.45-1.4c-0.39,0.34-0.82,0.67-1.19,1.05c-1.43,1.47-2.84,2.96-4.25,4.45
		c-0.5,0.52-0.98,0.62-1.62,0.3c-1.68-0.83-3.36-1.66-5.03-2.51c-0.22-0.11-0.38-0.09-0.59,0.04c-4.44,2.82-8.89,5.62-13.34,8.43
		c-0.08,0.05-0.16,0.1-0.28,0.17c-0.26-0.37-0.52-0.73-0.79-1.12c0.08-0.06,0.14-0.12,0.21-0.16c4.58-2.9,9.17-5.8,13.75-8.7
		c0.46-0.29,0.9-0.28,1.38-0.04c1.7,0.86,3.41,1.7,5.11,2.55C25.09,15.77,25.14,15.79,25.2,15.81z"/>
	<path class="st0" d="M30.24,16.69c0,5.7,0,11.4,0,17.13c-1.33,0-2.66,0-4.01,0c-0.01-0.1-0.02-0.2-0.02-0.3c0-4.1,0-8.2-0.01-12.3
		c0-0.27,0.08-0.46,0.27-0.65c1.19-1.24,2.38-2.49,3.56-3.73c0.05-0.05,0.09-0.12,0.13-0.17C30.19,16.66,30.21,16.67,30.24,16.69z"
		/>
	<path class="st0" d="M20.11,33.82c0-5.05,0-10.05,0-15.1c0.11,0.04,0.19,0.06,0.27,0.1c1.18,0.58,2.35,1.17,3.53,1.75
		c0.15,0.08,0.24,0.16,0.24,0.35c-0.01,4.2-0.01,8.41-0.01,12.61c0,0.09-0.01,0.18-0.02,0.29C22.77,33.82,21.44,33.82,20.11,33.82z"
		/>
	<path class="st0" d="M18,19.19c0,4.89,0,9.75,0,14.62c-1.33,0-2.65,0-4.01,0c0-0.09-0.01-0.19-0.01-0.29c0-3.82,0-7.64,0.01-11.46
		c0-0.12,0.07-0.29,0.16-0.35c1.23-0.82,2.47-1.63,3.71-2.44C17.88,19.25,17.92,19.23,18,19.19z"/>
	<path class="st0" d="M7.85,33.82c0-1.82,0-3.59,0-5.36c0-0.79-0.01-1.57,0.01-2.36c0-0.12,0.06-0.3,0.15-0.36
		c1.25-0.83,2.51-1.65,3.76-2.47c0.02-0.01,0.04-0.01,0.09-0.03c0,3.53,0,7.05,0,10.59C10.53,33.82,9.2,33.82,7.85,33.82z"/>
</g>
</svg>
